<svg width="24" height="24" viewBox="0 0 24 24" fill="none" xmlns="http://www.w3.org/2000/svg">
<style>
    .s0 { fill: #000000 }
</style>
<g>
    <path fill-rule="evenodd" class="s0" d="m4.3 7.3c0.4-0.4 1-0.4 1.4 0l6 6c0.4 0.4 0.4 1 0 1.4-0.4 0.4-1 0.4-1.4 0l-6-6c-0.4-0.4-0.4-1 0-1.4z"/>
    <path fill-rule="evenodd" class="s0" d="m12.6 4.2c0.4 0.3 0.5 0.9 0.2 1.4l-2 3q0 0-0.1 0.1l-6 6c-0.4 0.4-1 0.4-1.4 0-0.4-0.4-0.4-1 0-1.4l5.9-5.9 2-3c0.3-0.4 0.9-0.5 1.4-0.2z"/>
    <path fill-rule="evenodd" class="s0" d="m1 5c0-0.6 0.4-1 1-1h12c0.6 0 1 0.4 1 1 0 0.6-0.4 1-1 1h-12c-0.6 0-1-0.4-1-1z"/>
    <path fill-rule="evenodd" class="s0" d="m6 2c0-0.6 0.4-1 1-1h1c0.6 0 1 0.4 1 1 0 0.6-0.4 1-1 1h-1c-0.6 0-1-0.4-1-1z"/>
    <path fill-rule="evenodd" class="s0" d="m17 11c0.4 0 0.7 0.2 0.9 0.6l5 10c0.2 0.4 0 1-0.5 1.3-0.4 0.2-1 0-1.3-0.5l-4.1-8.2-4.1 8.2c-0.3 0.5-0.9 0.7-1.3 0.5-0.5-0.3-0.7-0.9-0.5-1.3l5-10c0.2-0.4 0.5-0.6 0.9-0.6z"/>
    <path fill-rule="evenodd" class="s0" d="m13 18c0-0.6 0.4-1 1-1 0.6 0 6 0 6 0 0.6 0 1 0.4 1 1 0 0.6-0.4 1-1 1h-6c-0.6 0-1-0.4-1-1z"/>
</g>
</svg>
